<mxfile host="app.diagrams.net" modified="2024-05-17T04:39:51.917Z" agent="Mozilla/5.0 (Windows NT 10.0; Win64; x64; rv:126.0) Gecko/20100101 Firefox/126.0" etag="5N45nNOz_UuX4b7q9ooR" version="24.2.5" type="device">
  <diagram name="Page-1" id="D9KrbN1HpGchZC3lj7AW">
    <mxGraphModel dx="3745" dy="1606" grid="1" gridSize="10" guides="1" tooltips="1" connect="1" arrows="1" fold="1" page="1" pageScale="1" pageWidth="850" pageHeight="1100" math="0" shadow="0">
      <root>
        <mxCell id="0" />
        <mxCell id="1" parent="0" />
        <mxCell id="q1pkWmGgmF4G5Z5k3sib-16" value="" style="rounded=0;whiteSpace=wrap;html=1;" parent="1" vertex="1">
          <mxGeometry x="-800" y="40" width="1210" height="840" as="geometry" />
        </mxCell>
        <mxCell id="q1pkWmGgmF4G5Z5k3sib-1" value="Primary Users" style="shape=umlActor;verticalLabelPosition=bottom;verticalAlign=top;html=1;outlineConnect=0;" parent="1" vertex="1">
          <mxGeometry x="-760" y="340" width="30" height="60" as="geometry" />
        </mxCell>
        <mxCell id="q1pkWmGgmF4G5Z5k3sib-2" value="Internal Users" style="shape=umlActor;verticalLabelPosition=bottom;verticalAlign=top;html=1;outlineConnect=0;" parent="1" vertex="1">
          <mxGeometry x="330" y="330" width="30" height="60" as="geometry" />
        </mxCell>
        <mxCell id="q1pkWmGgmF4G5Z5k3sib-6" value="&lt;b&gt;BookForLess Online Book Store&lt;br&gt;&lt;/b&gt;" style="text;html=1;align=center;verticalAlign=middle;whiteSpace=wrap;rounded=0;" parent="1" vertex="1">
          <mxGeometry x="-325" y="70" width="260" height="30" as="geometry" />
        </mxCell>
        <mxCell id="q1pkWmGgmF4G5Z5k3sib-8" value="Search Book" style="ellipse;whiteSpace=wrap;html=1;" parent="1" vertex="1">
          <mxGeometry x="-680" y="300" width="75" height="50" as="geometry" />
        </mxCell>
        <mxCell id="q1pkWmGgmF4G5Z5k3sib-9" value="View Book Information" style="ellipse;whiteSpace=wrap;html=1;" parent="1" vertex="1">
          <mxGeometry x="-555" y="200" width="75" height="50" as="geometry" />
        </mxCell>
        <mxCell id="q1pkWmGgmF4G5Z5k3sib-10" value="Create Order" style="ellipse;whiteSpace=wrap;html=1;" parent="1" vertex="1">
          <mxGeometry x="-180" y="200" width="75" height="50" as="geometry" />
        </mxCell>
        <mxCell id="q1pkWmGgmF4G5Z5k3sib-11" value="Request Refund" style="ellipse;whiteSpace=wrap;html=1;" parent="1" vertex="1">
          <mxGeometry x="-555" y="360" width="75" height="50" as="geometry" />
        </mxCell>
        <mxCell id="q1pkWmGgmF4G5Z5k3sib-13" value="Add to Cart" style="ellipse;whiteSpace=wrap;html=1;" parent="1" vertex="1">
          <mxGeometry x="-430" y="300" width="75" height="50" as="geometry" />
        </mxCell>
        <mxCell id="q1pkWmGgmF4G5Z5k3sib-14" value="Make Complaint" style="ellipse;whiteSpace=wrap;html=1;" parent="1" vertex="1">
          <mxGeometry x="-555" y="460" width="75" height="50" as="geometry" />
        </mxCell>
        <mxCell id="q1pkWmGgmF4G5Z5k3sib-18" value="" style="endArrow=none;html=1;rounded=0;exitX=1;exitY=0.3333333333333333;exitDx=0;exitDy=0;exitPerimeter=0;entryX=0;entryY=0.5;entryDx=0;entryDy=0;" parent="1" source="q1pkWmGgmF4G5Z5k3sib-1" target="q1pkWmGgmF4G5Z5k3sib-8" edge="1">
          <mxGeometry width="50" height="50" relative="1" as="geometry">
            <mxPoint x="-410" y="300" as="sourcePoint" />
            <mxPoint x="-360" y="250" as="targetPoint" />
          </mxGeometry>
        </mxCell>
        <mxCell id="q1pkWmGgmF4G5Z5k3sib-26" value="" style="endArrow=none;html=1;rounded=0;entryX=0;entryY=0.5;entryDx=0;entryDy=0;exitX=1;exitY=0.5;exitDx=0;exitDy=0;dashed=1;startArrow=classic;startFill=1;" parent="1" source="q1pkWmGgmF4G5Z5k3sib-7" target="q1pkWmGgmF4G5Z5k3sib-9" edge="1">
          <mxGeometry width="50" height="50" relative="1" as="geometry">
            <mxPoint x="-635" y="350" as="sourcePoint" />
            <mxPoint x="-565.0000000000014" y="195" as="targetPoint" />
          </mxGeometry>
        </mxCell>
        <mxCell id="q1pkWmGgmF4G5Z5k3sib-28" value="" style="endArrow=none;html=1;rounded=0;entryX=0;entryY=0.5;entryDx=0;entryDy=0;exitX=1;exitY=0.5;exitDx=0;exitDy=0;dashed=1;startArrow=classic;startFill=1;" parent="1" source="wmEHwvrF9gfvvMeBKOm7-19" target="q1pkWmGgmF4G5Z5k3sib-11" edge="1">
          <mxGeometry width="50" height="50" relative="1" as="geometry">
            <mxPoint x="-440" y="480" as="sourcePoint" />
            <mxPoint x="-307" y="490" as="targetPoint" />
          </mxGeometry>
        </mxCell>
        <mxCell id="wmEHwvrF9gfvvMeBKOm7-28" value="&lt;font style=&quot;font-size: 10px;&quot;&gt;&amp;lt;&amp;lt;extends&amp;gt;&amp;gt;&lt;/font&gt;" style="edgeLabel;html=1;align=center;verticalAlign=middle;resizable=0;points=[];labelBackgroundColor=none;" vertex="1" connectable="0" parent="q1pkWmGgmF4G5Z5k3sib-28">
          <mxGeometry x="0.2755" y="-1" relative="1" as="geometry">
            <mxPoint x="-17" y="-10" as="offset" />
          </mxGeometry>
        </mxCell>
        <mxCell id="q1pkWmGgmF4G5Z5k3sib-29" value="" style="endArrow=none;html=1;rounded=0;entryX=0;entryY=0.5;entryDx=0;entryDy=0;exitX=1;exitY=0.5;exitDx=0;exitDy=0;dashed=1;startArrow=classic;startFill=1;" parent="1" source="wmEHwvrF9gfvvMeBKOm7-19" target="q1pkWmGgmF4G5Z5k3sib-14" edge="1">
          <mxGeometry width="50" height="50" relative="1" as="geometry">
            <mxPoint x="-450" y="470" as="sourcePoint" />
            <mxPoint x="-306" y="602" as="targetPoint" />
          </mxGeometry>
        </mxCell>
        <mxCell id="q1pkWmGgmF4G5Z5k3sib-31" value="" style="endArrow=none;html=1;rounded=0;entryX=1;entryY=0.5;entryDx=0;entryDy=0;exitX=0;exitY=0.3333333333333333;exitDx=0;exitDy=0;exitPerimeter=0;" parent="1" source="q1pkWmGgmF4G5Z5k3sib-2" target="wmEHwvrF9gfvvMeBKOm7-10" edge="1">
          <mxGeometry width="50" height="50" relative="1" as="geometry">
            <mxPoint x="-140" y="380" as="sourcePoint" />
            <mxPoint x="46.77268432235337" y="614.994783327692" as="targetPoint" />
          </mxGeometry>
        </mxCell>
        <mxCell id="wmEHwvrF9gfvvMeBKOm7-1" value="Create Custom Order" style="ellipse;whiteSpace=wrap;html=1;" vertex="1" parent="1">
          <mxGeometry x="-677.5" y="500" width="75" height="50" as="geometry" />
        </mxCell>
        <mxCell id="wmEHwvrF9gfvvMeBKOm7-2" value="Manage Custom Orders" style="ellipse;whiteSpace=wrap;html=1;" vertex="1" parent="1">
          <mxGeometry x="205" y="700" width="75" height="50" as="geometry" />
        </mxCell>
        <mxCell id="wmEHwvrF9gfvvMeBKOm7-3" value="Remove Book" style="ellipse;whiteSpace=wrap;html=1;" vertex="1" parent="1">
          <mxGeometry x="-45" y="200" width="75" height="50" as="geometry" />
        </mxCell>
        <mxCell id="wmEHwvrF9gfvvMeBKOm7-4" value="Add Book" style="ellipse;whiteSpace=wrap;html=1;" vertex="1" parent="1">
          <mxGeometry x="-45" y="100" width="75" height="50" as="geometry" />
        </mxCell>
        <mxCell id="wmEHwvrF9gfvvMeBKOm7-5" value="Edit Book Information" style="ellipse;whiteSpace=wrap;html=1;" vertex="1" parent="1">
          <mxGeometry x="-45" y="300" width="75" height="50" as="geometry" />
        </mxCell>
        <mxCell id="wmEHwvrF9gfvvMeBKOm7-6" value="Manage Refund Request" style="ellipse;whiteSpace=wrap;html=1;" vertex="1" parent="1">
          <mxGeometry x="79.99000000000001" y="600" width="75" height="50" as="geometry" />
        </mxCell>
        <mxCell id="wmEHwvrF9gfvvMeBKOm7-9" value="" style="endArrow=none;html=1;rounded=0;entryX=0;entryY=0;entryDx=0;entryDy=0;exitX=1;exitY=0.3333333333333333;exitDx=0;exitDy=0;exitPerimeter=0;" edge="1" parent="1" source="q1pkWmGgmF4G5Z5k3sib-1" target="wmEHwvrF9gfvvMeBKOm7-1">
          <mxGeometry width="50" height="50" relative="1" as="geometry">
            <mxPoint x="-694" y="375" as="sourcePoint" />
            <mxPoint x="-493" y="570" as="targetPoint" />
          </mxGeometry>
        </mxCell>
        <mxCell id="wmEHwvrF9gfvvMeBKOm7-10" value="Search Book" style="ellipse;whiteSpace=wrap;html=1;" vertex="1" parent="1">
          <mxGeometry x="205" y="300" width="75" height="50" as="geometry" />
        </mxCell>
        <mxCell id="wmEHwvrF9gfvvMeBKOm7-11" value="" style="endArrow=none;html=1;rounded=0;entryX=0;entryY=1;entryDx=0;entryDy=0;exitX=1;exitY=0.3333333333333333;exitDx=0;exitDy=0;exitPerimeter=0;" edge="1" parent="1" source="q1pkWmGgmF4G5Z5k3sib-1" target="q1pkWmGgmF4G5Z5k3sib-7">
          <mxGeometry width="50" height="50" relative="1" as="geometry">
            <mxPoint x="-700" y="360" as="sourcePoint" />
            <mxPoint x="-427" y="293" as="targetPoint" />
          </mxGeometry>
        </mxCell>
        <mxCell id="q1pkWmGgmF4G5Z5k3sib-7" value="Browse Books Page" style="ellipse;whiteSpace=wrap;html=1;" parent="1" vertex="1">
          <mxGeometry x="-680" y="200" width="75" height="50" as="geometry" />
        </mxCell>
        <mxCell id="wmEHwvrF9gfvvMeBKOm7-13" value="" style="endArrow=none;html=1;rounded=0;entryX=0;entryY=0.5;entryDx=0;entryDy=0;exitX=1;exitY=0.3333333333333333;exitDx=0;exitDy=0;exitPerimeter=0;" edge="1" parent="1" source="q1pkWmGgmF4G5Z5k3sib-1" target="wmEHwvrF9gfvvMeBKOm7-19">
          <mxGeometry width="50" height="50" relative="1" as="geometry">
            <mxPoint x="-770" y="380" as="sourcePoint" />
            <mxPoint x="-670.0000000000014" y="375" as="targetPoint" />
          </mxGeometry>
        </mxCell>
        <mxCell id="wmEHwvrF9gfvvMeBKOm7-15" value="" style="endArrow=none;html=1;rounded=0;entryX=1;entryY=0.5;entryDx=0;entryDy=0;exitX=0;exitY=0.3333333333333333;exitDx=0;exitDy=0;exitPerimeter=0;" edge="1" parent="1" source="q1pkWmGgmF4G5Z5k3sib-2" target="wmEHwvrF9gfvvMeBKOm7-55">
          <mxGeometry width="50" height="50" relative="1" as="geometry">
            <mxPoint x="310" y="370" as="sourcePoint" />
            <mxPoint x="269.118686213671" y="607.3907152740328" as="targetPoint" />
          </mxGeometry>
        </mxCell>
        <mxCell id="wmEHwvrF9gfvvMeBKOm7-17" value="" style="endArrow=none;html=1;rounded=0;entryX=0;entryY=0;entryDx=0;entryDy=0;exitX=1;exitY=1;exitDx=0;exitDy=0;dashed=1;startArrow=classic;startFill=1;" edge="1" parent="1" source="q1pkWmGgmF4G5Z5k3sib-9" target="q1pkWmGgmF4G5Z5k3sib-13">
          <mxGeometry width="50" height="50" relative="1" as="geometry">
            <mxPoint x="-550" y="297" as="sourcePoint" />
            <mxPoint x="-565.0000000000014" y="215" as="targetPoint" />
          </mxGeometry>
        </mxCell>
        <mxCell id="wmEHwvrF9gfvvMeBKOm7-18" value="" style="endArrow=none;html=1;rounded=0;entryX=0;entryY=1;entryDx=0;entryDy=0;exitX=1;exitY=0;exitDx=0;exitDy=0;startArrow=classic;startFill=1;dashed=1;" edge="1" parent="1" source="q1pkWmGgmF4G5Z5k3sib-8" target="q1pkWmGgmF4G5Z5k3sib-9">
          <mxGeometry width="50" height="50" relative="1" as="geometry">
            <mxPoint x="-590" y="247" as="sourcePoint" />
            <mxPoint x="-565.0000000000014" y="215" as="targetPoint" />
          </mxGeometry>
        </mxCell>
        <mxCell id="wmEHwvrF9gfvvMeBKOm7-19" value="Manage Order" style="ellipse;whiteSpace=wrap;html=1;" vertex="1" parent="1">
          <mxGeometry x="-680" y="400" width="75" height="50" as="geometry" />
        </mxCell>
        <mxCell id="wmEHwvrF9gfvvMeBKOm7-21" value="" style="endArrow=none;html=1;rounded=0;entryX=0;entryY=0.5;entryDx=0;entryDy=0;exitX=1;exitY=0.5;exitDx=0;exitDy=0;dashed=1;startArrow=classic;startFill=1;" edge="1" parent="1" source="q1pkWmGgmF4G5Z5k3sib-9" target="q1pkWmGgmF4G5Z5k3sib-10">
          <mxGeometry width="50" height="50" relative="1" as="geometry">
            <mxPoint x="-480" y="255" as="sourcePoint" />
            <mxPoint x="-450" y="233" as="targetPoint" />
          </mxGeometry>
        </mxCell>
        <mxCell id="wmEHwvrF9gfvvMeBKOm7-22" value="" style="endArrow=none;html=1;rounded=0;entryX=0;entryY=0.5;entryDx=0;entryDy=0;exitX=1;exitY=0.5;exitDx=0;exitDy=0;dashed=1;startArrow=classic;startFill=1;" edge="1" parent="1" source="q1pkWmGgmF4G5Z5k3sib-8" target="q1pkWmGgmF4G5Z5k3sib-13">
          <mxGeometry width="50" height="50" relative="1" as="geometry">
            <mxPoint x="-596" y="287" as="sourcePoint" />
            <mxPoint x="-544" y="263" as="targetPoint" />
          </mxGeometry>
        </mxCell>
        <mxCell id="wmEHwvrF9gfvvMeBKOm7-23" value="" style="endArrow=none;html=1;rounded=0;exitX=1;exitY=0.5;exitDx=0;exitDy=0;entryX=0;entryY=0.5;entryDx=0;entryDy=0;dashed=1;startArrow=classic;startFill=1;" edge="1" parent="1" source="q1pkWmGgmF4G5Z5k3sib-13" target="wmEHwvrF9gfvvMeBKOm7-24">
          <mxGeometry width="50" height="50" relative="1" as="geometry">
            <mxPoint x="-270" y="317" as="sourcePoint" />
            <mxPoint x="-290" y="300" as="targetPoint" />
          </mxGeometry>
        </mxCell>
        <mxCell id="wmEHwvrF9gfvvMeBKOm7-24" value="View Cart" style="ellipse;whiteSpace=wrap;html=1;" vertex="1" parent="1">
          <mxGeometry x="-305" y="300" width="75" height="50" as="geometry" />
        </mxCell>
        <mxCell id="wmEHwvrF9gfvvMeBKOm7-25" value="" style="endArrow=none;html=1;rounded=0;entryX=0;entryY=1;entryDx=0;entryDy=0;exitX=1;exitY=0;exitDx=0;exitDy=0;dashed=1;startArrow=classic;startFill=1;" edge="1" parent="1" source="wmEHwvrF9gfvvMeBKOm7-24" target="q1pkWmGgmF4G5Z5k3sib-10">
          <mxGeometry width="50" height="50" relative="1" as="geometry">
            <mxPoint x="-267" y="300" as="sourcePoint" />
            <mxPoint x="-200" y="256" as="targetPoint" />
          </mxGeometry>
        </mxCell>
        <mxCell id="wmEHwvrF9gfvvMeBKOm7-29" value="&lt;font style=&quot;font-size: 10px;&quot;&gt;&amp;lt;&amp;lt;extends&amp;gt;&amp;gt;&lt;/font&gt;" style="edgeLabel;html=1;align=center;verticalAlign=middle;resizable=0;points=[];labelBackgroundColor=none;" vertex="1" connectable="0" parent="1">
          <mxGeometry x="-589.9998842597684" y="465.0025322553013" as="geometry" />
        </mxCell>
        <mxCell id="wmEHwvrF9gfvvMeBKOm7-30" value="Manage Inventories" style="ellipse;whiteSpace=wrap;html=1;" vertex="1" parent="1">
          <mxGeometry x="80" y="245" width="75" height="50" as="geometry" />
        </mxCell>
        <mxCell id="wmEHwvrF9gfvvMeBKOm7-31" value="" style="endArrow=none;html=1;rounded=0;entryX=1;entryY=0.5;entryDx=0;entryDy=0;dashed=1;startArrow=classic;startFill=1;exitX=0;exitY=0.5;exitDx=0;exitDy=0;" edge="1" parent="1" source="wmEHwvrF9gfvvMeBKOm7-30" target="wmEHwvrF9gfvvMeBKOm7-4">
          <mxGeometry width="50" height="50" relative="1" as="geometry">
            <mxPoint x="85" y="230" as="sourcePoint" />
            <mxPoint x="-120" y="170" as="targetPoint" />
          </mxGeometry>
        </mxCell>
        <mxCell id="wmEHwvrF9gfvvMeBKOm7-32" value="&lt;font style=&quot;font-size: 10px;&quot;&gt;&amp;lt;&amp;lt;includes&amp;gt;&amp;gt;&lt;/font&gt;" style="edgeLabel;html=1;align=center;verticalAlign=middle;resizable=0;points=[];labelBackgroundColor=none;" vertex="1" connectable="0" parent="wmEHwvrF9gfvvMeBKOm7-31">
          <mxGeometry x="0.2755" y="-1" relative="1" as="geometry">
            <mxPoint x="1" y="1" as="offset" />
          </mxGeometry>
        </mxCell>
        <mxCell id="wmEHwvrF9gfvvMeBKOm7-33" value="" style="endArrow=none;html=1;rounded=0;entryX=1;entryY=0.5;entryDx=0;entryDy=0;exitX=0;exitY=0.5;exitDx=0;exitDy=0;dashed=1;startArrow=classic;startFill=1;" edge="1" parent="1" source="wmEHwvrF9gfvvMeBKOm7-30" target="wmEHwvrF9gfvvMeBKOm7-3">
          <mxGeometry width="50" height="50" relative="1" as="geometry">
            <mxPoint x="-170" y="210" as="sourcePoint" />
            <mxPoint x="-120" y="270" as="targetPoint" />
          </mxGeometry>
        </mxCell>
        <mxCell id="wmEHwvrF9gfvvMeBKOm7-34" value="" style="endArrow=none;html=1;rounded=0;entryX=1;entryY=0.5;entryDx=0;entryDy=0;exitX=0;exitY=0.5;exitDx=0;exitDy=0;dashed=1;startArrow=classic;startFill=1;" edge="1" parent="1" source="wmEHwvrF9gfvvMeBKOm7-30" target="wmEHwvrF9gfvvMeBKOm7-5">
          <mxGeometry width="50" height="50" relative="1" as="geometry">
            <mxPoint x="90" y="235" as="sourcePoint" />
            <mxPoint x="40" y="235" as="targetPoint" />
          </mxGeometry>
        </mxCell>
        <mxCell id="wmEHwvrF9gfvvMeBKOm7-35" value="&lt;font style=&quot;font-size: 10px;&quot;&gt;&amp;lt;&amp;lt;includes&amp;gt;&amp;gt;&lt;/font&gt;" style="edgeLabel;html=1;align=center;verticalAlign=middle;resizable=0;points=[];labelBackgroundColor=none;" vertex="1" connectable="0" parent="1">
          <mxGeometry x="55.00438202957105" y="244.99766978799119" as="geometry" />
        </mxCell>
        <mxCell id="wmEHwvrF9gfvvMeBKOm7-36" value="&lt;font style=&quot;font-size: 10px;&quot;&gt;&amp;lt;&amp;lt;includes&amp;gt;&amp;gt;&lt;/font&gt;" style="edgeLabel;html=1;align=center;verticalAlign=middle;resizable=0;points=[];labelBackgroundColor=none;" vertex="1" connectable="0" parent="1">
          <mxGeometry x="55.00438202957105" y="309.9976697879912" as="geometry" />
        </mxCell>
        <mxCell id="wmEHwvrF9gfvvMeBKOm7-37" value="View Book Information" style="ellipse;whiteSpace=wrap;html=1;" vertex="1" parent="1">
          <mxGeometry x="-45" y="400" width="75" height="50" as="geometry" />
        </mxCell>
        <mxCell id="wmEHwvrF9gfvvMeBKOm7-38" value="" style="endArrow=none;html=1;rounded=0;entryX=1;entryY=0.5;entryDx=0;entryDy=0;exitX=0;exitY=0.5;exitDx=0;exitDy=0;dashed=1;startArrow=classic;startFill=1;" edge="1" parent="1" source="wmEHwvrF9gfvvMeBKOm7-30" target="wmEHwvrF9gfvvMeBKOm7-37">
          <mxGeometry width="50" height="50" relative="1" as="geometry">
            <mxPoint x="90" y="235" as="sourcePoint" />
            <mxPoint x="40" y="305" as="targetPoint" />
          </mxGeometry>
        </mxCell>
        <mxCell id="wmEHwvrF9gfvvMeBKOm7-39" value="&lt;font style=&quot;font-size: 10px;&quot;&gt;&amp;lt;&amp;lt;includes&amp;gt;&amp;gt;&lt;/font&gt;" style="edgeLabel;html=1;align=center;verticalAlign=middle;resizable=0;points=[];labelBackgroundColor=none;" vertex="1" connectable="0" parent="1">
          <mxGeometry x="55.00438202957105" y="379.9976697879912" as="geometry" />
        </mxCell>
        <mxCell id="wmEHwvrF9gfvvMeBKOm7-41" value="Browse Books Page" style="ellipse;whiteSpace=wrap;html=1;" vertex="1" parent="1">
          <mxGeometry x="205" y="200" width="75" height="50" as="geometry" />
        </mxCell>
        <mxCell id="wmEHwvrF9gfvvMeBKOm7-50" value="" style="endArrow=none;html=1;rounded=0;entryX=1;entryY=0.5;entryDx=0;entryDy=0;exitX=0;exitY=0.3333333333333333;exitDx=0;exitDy=0;exitPerimeter=0;" edge="1" parent="1" source="q1pkWmGgmF4G5Z5k3sib-2" target="wmEHwvrF9gfvvMeBKOm7-41">
          <mxGeometry width="50" height="50" relative="1" as="geometry">
            <mxPoint x="330" y="290" as="sourcePoint" />
            <mxPoint x="235" y="365" as="targetPoint" />
          </mxGeometry>
        </mxCell>
        <mxCell id="wmEHwvrF9gfvvMeBKOm7-52" value="" style="endArrow=none;html=1;rounded=0;entryX=1;entryY=0.5;entryDx=0;entryDy=0;exitX=0;exitY=0;exitDx=0;exitDy=0;dashed=1;startArrow=classic;startFill=1;" edge="1" parent="1" source="wmEHwvrF9gfvvMeBKOm7-10" target="wmEHwvrF9gfvvMeBKOm7-30">
          <mxGeometry width="50" height="50" relative="1" as="geometry">
            <mxPoint x="340" y="360" as="sourcePoint" />
            <mxPoint x="290" y="335" as="targetPoint" />
          </mxGeometry>
        </mxCell>
        <mxCell id="wmEHwvrF9gfvvMeBKOm7-53" value="" style="endArrow=none;html=1;rounded=0;entryX=1;entryY=0.5;entryDx=0;entryDy=0;exitX=0;exitY=1;exitDx=0;exitDy=0;dashed=1;startArrow=classic;startFill=1;" edge="1" parent="1" source="wmEHwvrF9gfvvMeBKOm7-41" target="wmEHwvrF9gfvvMeBKOm7-30">
          <mxGeometry width="50" height="50" relative="1" as="geometry">
            <mxPoint x="226" y="317" as="sourcePoint" />
            <mxPoint x="165" y="280" as="targetPoint" />
          </mxGeometry>
        </mxCell>
        <mxCell id="wmEHwvrF9gfvvMeBKOm7-54" value="Handle Complaints" style="ellipse;whiteSpace=wrap;html=1;" vertex="1" parent="1">
          <mxGeometry x="205.01" y="450" width="75" height="50" as="geometry" />
        </mxCell>
        <mxCell id="wmEHwvrF9gfvvMeBKOm7-55" value="Manage Normal Orders" style="ellipse;whiteSpace=wrap;html=1;" vertex="1" parent="1">
          <mxGeometry x="205" y="600" width="75" height="50" as="geometry" />
        </mxCell>
        <mxCell id="wmEHwvrF9gfvvMeBKOm7-57" value="" style="endArrow=none;html=1;rounded=0;entryX=1;entryY=0.5;entryDx=0;entryDy=0;exitX=0;exitY=0.3333333333333333;exitDx=0;exitDy=0;exitPerimeter=0;" edge="1" parent="1" source="q1pkWmGgmF4G5Z5k3sib-2" target="wmEHwvrF9gfvvMeBKOm7-54">
          <mxGeometry width="50" height="50" relative="1" as="geometry">
            <mxPoint x="340" y="360" as="sourcePoint" />
            <mxPoint x="279" y="667" as="targetPoint" />
          </mxGeometry>
        </mxCell>
        <mxCell id="wmEHwvrF9gfvvMeBKOm7-58" value="Reject Complaint" style="ellipse;whiteSpace=wrap;html=1;" vertex="1" parent="1">
          <mxGeometry x="80.00999999999999" y="400" width="75" height="50" as="geometry" />
        </mxCell>
        <mxCell id="wmEHwvrF9gfvvMeBKOm7-59" value="Reject Refund" style="ellipse;whiteSpace=wrap;html=1;" vertex="1" parent="1">
          <mxGeometry x="-45" y="600" width="75" height="50" as="geometry" />
        </mxCell>
        <mxCell id="wmEHwvrF9gfvvMeBKOm7-60" value="" style="endArrow=none;html=1;rounded=0;entryX=1;entryY=1;entryDx=0;entryDy=0;exitX=0;exitY=0;exitDx=0;exitDy=0;startArrow=classic;startFill=1;dashed=1;" edge="1" parent="1" source="wmEHwvrF9gfvvMeBKOm7-2" target="wmEHwvrF9gfvvMeBKOm7-6">
          <mxGeometry width="50" height="50" relative="1" as="geometry">
            <mxPoint x="215" y="635" as="sourcePoint" />
            <mxPoint x="40" y="735" as="targetPoint" />
          </mxGeometry>
        </mxCell>
        <mxCell id="wmEHwvrF9gfvvMeBKOm7-67" value="" style="endArrow=none;html=1;rounded=0;entryX=1;entryY=0.5;entryDx=0;entryDy=0;startArrow=classic;startFill=1;exitX=0;exitY=0.5;exitDx=0;exitDy=0;dashed=1;" edge="1" parent="1" source="wmEHwvrF9gfvvMeBKOm7-55" target="wmEHwvrF9gfvvMeBKOm7-6">
          <mxGeometry width="50" height="50" relative="1" as="geometry">
            <mxPoint x="130.98000000000002" y="662.68" as="sourcePoint" />
            <mxPoint x="54.99650429449912" y="630.002330470334" as="targetPoint" />
          </mxGeometry>
        </mxCell>
        <mxCell id="wmEHwvrF9gfvvMeBKOm7-70" value="" style="endArrow=none;html=1;rounded=0;entryX=1;entryY=0.5;entryDx=0;entryDy=0;exitX=0;exitY=0.5;exitDx=0;exitDy=0;startArrow=classic;startFill=1;dashed=1;" edge="1" parent="1" source="wmEHwvrF9gfvvMeBKOm7-54" target="wmEHwvrF9gfvvMeBKOm7-58">
          <mxGeometry width="50" height="50" relative="1" as="geometry">
            <mxPoint x="90.00999999999999" y="485" as="sourcePoint" />
            <mxPoint x="155.01000000000545" y="535" as="targetPoint" />
          </mxGeometry>
        </mxCell>
        <mxCell id="wmEHwvrF9gfvvMeBKOm7-74" value="Issue Refund" style="ellipse;whiteSpace=wrap;html=1;" vertex="1" parent="1">
          <mxGeometry x="-45" y="700" width="75" height="50" as="geometry" />
        </mxCell>
        <mxCell id="wmEHwvrF9gfvvMeBKOm7-78" value="" style="endArrow=none;html=1;rounded=0;entryX=1;entryY=0;entryDx=0;entryDy=0;startArrow=classic;startFill=1;exitX=0;exitY=1;exitDx=0;exitDy=0;dashed=1;" edge="1" parent="1" source="wmEHwvrF9gfvvMeBKOm7-6" target="wmEHwvrF9gfvvMeBKOm7-74">
          <mxGeometry width="50" height="50" relative="1" as="geometry">
            <mxPoint x="215" y="735" as="sourcePoint" />
            <mxPoint x="165" y="735" as="targetPoint" />
          </mxGeometry>
        </mxCell>
        <mxCell id="wmEHwvrF9gfvvMeBKOm7-79" value="" style="endArrow=none;html=1;rounded=0;entryX=1;entryY=0.5;entryDx=0;entryDy=0;startArrow=classic;startFill=1;exitX=0;exitY=0.5;exitDx=0;exitDy=0;dashed=1;" edge="1" parent="1" source="wmEHwvrF9gfvvMeBKOm7-6" target="wmEHwvrF9gfvvMeBKOm7-59">
          <mxGeometry width="50" height="50" relative="1" as="geometry">
            <mxPoint x="90" y="735" as="sourcePoint" />
            <mxPoint x="40" y="735" as="targetPoint" />
          </mxGeometry>
        </mxCell>
        <mxCell id="wmEHwvrF9gfvvMeBKOm7-81" value="Accept Complaint" style="ellipse;whiteSpace=wrap;html=1;" vertex="1" parent="1">
          <mxGeometry x="80.00999999999999" y="500" width="75" height="50" as="geometry" />
        </mxCell>
        <mxCell id="wmEHwvrF9gfvvMeBKOm7-82" value="Mark As Complete" style="ellipse;whiteSpace=wrap;html=1;" vertex="1" parent="1">
          <mxGeometry x="80" y="800" width="75" height="50" as="geometry" />
        </mxCell>
        <mxCell id="wmEHwvrF9gfvvMeBKOm7-83" value="Mark As Incomplete" style="ellipse;whiteSpace=wrap;html=1;" vertex="1" parent="1">
          <mxGeometry x="80" y="700" width="75" height="50" as="geometry" />
        </mxCell>
        <mxCell id="wmEHwvrF9gfvvMeBKOm7-84" value="" style="endArrow=none;html=1;rounded=0;entryX=1;entryY=0;entryDx=0;entryDy=0;exitX=0;exitY=1;exitDx=0;exitDy=0;startArrow=classic;startFill=1;dashed=1;" edge="1" parent="1" source="wmEHwvrF9gfvvMeBKOm7-2" target="wmEHwvrF9gfvvMeBKOm7-82">
          <mxGeometry width="50" height="50" relative="1" as="geometry">
            <mxPoint x="215" y="735" as="sourcePoint" />
            <mxPoint x="165" y="735" as="targetPoint" />
          </mxGeometry>
        </mxCell>
        <mxCell id="wmEHwvrF9gfvvMeBKOm7-85" value="" style="endArrow=none;html=1;rounded=0;entryX=1;entryY=0.5;entryDx=0;entryDy=0;exitX=0;exitY=0.5;exitDx=0;exitDy=0;startArrow=classic;startFill=1;dashed=1;" edge="1" parent="1" source="wmEHwvrF9gfvvMeBKOm7-2" target="wmEHwvrF9gfvvMeBKOm7-83">
          <mxGeometry width="50" height="50" relative="1" as="geometry">
            <mxPoint x="226" y="753" as="sourcePoint" />
            <mxPoint x="154" y="817" as="targetPoint" />
          </mxGeometry>
        </mxCell>
        <mxCell id="wmEHwvrF9gfvvMeBKOm7-86" value="" style="endArrow=none;html=1;rounded=0;entryX=1;entryY=0.5;entryDx=0;entryDy=0;exitX=0;exitY=0.5;exitDx=0;exitDy=0;startArrow=classic;startFill=1;dashed=1;" edge="1" parent="1" source="wmEHwvrF9gfvvMeBKOm7-54" target="wmEHwvrF9gfvvMeBKOm7-81">
          <mxGeometry width="50" height="50" relative="1" as="geometry">
            <mxPoint x="215.01" y="485" as="sourcePoint" />
            <mxPoint x="165.01" y="485" as="targetPoint" />
          </mxGeometry>
        </mxCell>
        <mxCell id="wmEHwvrF9gfvvMeBKOm7-91" value="" style="endArrow=none;html=1;rounded=0;entryX=0.053;entryY=0.7;entryDx=0;entryDy=0;exitX=1;exitY=0.34;exitDx=0;exitDy=0;entryPerimeter=0;exitPerimeter=0;dashed=1;startArrow=classic;startFill=1;" edge="1" parent="1">
          <mxGeometry width="50" height="50" relative="1" as="geometry">
            <mxPoint x="-607" y="317" as="sourcePoint" />
            <mxPoint x="-178.0250000000001" y="235" as="targetPoint" />
          </mxGeometry>
        </mxCell>
        <mxCell id="wmEHwvrF9gfvvMeBKOm7-92" value="&lt;font style=&quot;font-size: 10px;&quot;&gt;&amp;lt;&amp;lt;Includes&amp;gt;&amp;gt;&lt;/font&gt;" style="edgeLabel;html=1;align=center;verticalAlign=middle;resizable=0;points=[];labelBackgroundColor=none;" vertex="1" connectable="0" parent="1">
          <mxGeometry x="180.0179776386875" y="435.00224273653555" as="geometry" />
        </mxCell>
        <mxCell id="wmEHwvrF9gfvvMeBKOm7-93" value="&lt;font style=&quot;font-size: 10px;&quot;&gt;&amp;lt;&amp;lt;Includes&amp;gt;&amp;gt;&lt;/font&gt;" style="edgeLabel;html=1;align=center;verticalAlign=middle;resizable=0;points=[];labelBackgroundColor=none;" vertex="1" connectable="0" parent="1">
          <mxGeometry x="180.0179776386875" y="515.0022427365355" as="geometry" />
        </mxCell>
        <mxCell id="wmEHwvrF9gfvvMeBKOm7-94" value="&lt;font style=&quot;font-size: 10px;&quot;&gt;&amp;lt;&amp;lt;includes&amp;gt;&amp;gt;&lt;/font&gt;" style="edgeLabel;html=1;align=center;verticalAlign=middle;resizable=0;points=[];labelBackgroundColor=none;" vertex="1" connectable="0" parent="1">
          <mxGeometry x="180.0179776386875" y="740.0022427365355" as="geometry">
            <mxPoint x="1" y="-1" as="offset" />
          </mxGeometry>
        </mxCell>
        <mxCell id="wmEHwvrF9gfvvMeBKOm7-95" value="&lt;font style=&quot;font-size: 10px;&quot;&gt;&amp;lt;&amp;lt;includes&amp;gt;&amp;gt;&lt;/font&gt;" style="edgeLabel;html=1;align=center;verticalAlign=middle;resizable=0;points=[];labelBackgroundColor=none;" vertex="1" connectable="0" parent="1">
          <mxGeometry x="180.0179776386875" y="820.0022427365355" as="geometry" />
        </mxCell>
        <mxCell id="wmEHwvrF9gfvvMeBKOm7-96" value="" style="endArrow=none;html=1;rounded=0;entryX=1;entryY=0.5;entryDx=0;entryDy=0;exitX=0;exitY=0.3333333333333333;exitDx=0;exitDy=0;exitPerimeter=0;" edge="1" parent="1" source="q1pkWmGgmF4G5Z5k3sib-2" target="wmEHwvrF9gfvvMeBKOm7-2">
          <mxGeometry width="50" height="50" relative="1" as="geometry">
            <mxPoint x="340" y="360" as="sourcePoint" />
            <mxPoint x="154" y="617" as="targetPoint" />
          </mxGeometry>
        </mxCell>
        <mxCell id="wmEHwvrF9gfvvMeBKOm7-98" value="" style="endArrow=none;html=1;rounded=0;entryX=1;entryY=0.5;entryDx=0;entryDy=0;startArrow=classic;startFill=1;exitX=0;exitY=0.5;exitDx=0;exitDy=0;dashed=1;" edge="1" parent="1" source="wmEHwvrF9gfvvMeBKOm7-83" target="wmEHwvrF9gfvvMeBKOm7-74">
          <mxGeometry width="50" height="50" relative="1" as="geometry">
            <mxPoint x="90" y="685" as="sourcePoint" />
            <mxPoint x="40" y="735" as="targetPoint" />
          </mxGeometry>
        </mxCell>
        <mxCell id="wmEHwvrF9gfvvMeBKOm7-100" value="&lt;font style=&quot;font-size: 10px;&quot;&gt;&amp;lt;&amp;lt;includes&amp;gt;&amp;gt;&lt;/font&gt;" style="edgeLabel;html=1;align=center;verticalAlign=middle;resizable=0;points=[];labelBackgroundColor=none;" vertex="1" connectable="0" parent="1">
          <mxGeometry x="49.9979776386875" y="610.0022427365355" as="geometry">
            <mxPoint x="1" y="-1" as="offset" />
          </mxGeometry>
        </mxCell>
        <mxCell id="wmEHwvrF9gfvvMeBKOm7-101" value="&lt;font style=&quot;font-size: 10px;&quot;&gt;&amp;lt;&amp;lt;includes&amp;gt;&amp;gt;&lt;/font&gt;" style="edgeLabel;html=1;align=center;verticalAlign=middle;resizable=0;points=[];labelBackgroundColor=none;" vertex="1" connectable="0" parent="1">
          <mxGeometry x="49.9979776386875" y="670.0022427365355" as="geometry" />
        </mxCell>
        <mxCell id="wmEHwvrF9gfvvMeBKOm7-102" value="&lt;font style=&quot;font-size: 10px;&quot;&gt;&amp;lt;&amp;lt;includes&amp;gt;&amp;gt;&lt;/font&gt;" style="edgeLabel;html=1;align=center;verticalAlign=middle;resizable=0;points=[];labelBackgroundColor=none;" vertex="1" connectable="0" parent="1">
          <mxGeometry x="49.9979776386875" y="740.0022427365355" as="geometry" />
        </mxCell>
        <mxCell id="wmEHwvrF9gfvvMeBKOm7-103" value="&lt;font style=&quot;font-size: 10px;&quot;&gt;&amp;lt;&amp;lt;includes&amp;gt;&amp;gt;&lt;/font&gt;" style="edgeLabel;html=1;align=center;verticalAlign=middle;resizable=0;points=[];labelBackgroundColor=none;" vertex="1" connectable="0" parent="1">
          <mxGeometry x="180.0179776386875" y="680.0022427365355" as="geometry" />
        </mxCell>
        <mxCell id="wmEHwvrF9gfvvMeBKOm7-104" value="&lt;font style=&quot;font-size: 10px;&quot;&gt;&amp;lt;&amp;lt;includes&amp;gt;&amp;gt;&lt;/font&gt;" style="edgeLabel;html=1;align=center;verticalAlign=middle;resizable=0;points=[];labelBackgroundColor=none;" vertex="1" connectable="0" parent="1">
          <mxGeometry x="180.0179776386875" y="610.0022427365355" as="geometry" />
        </mxCell>
        <mxCell id="wmEHwvrF9gfvvMeBKOm7-105" value="&lt;font style=&quot;font-size: 10px;&quot;&gt;&amp;lt;&amp;lt;extends&amp;gt;&amp;gt;&lt;/font&gt;" style="edgeLabel;html=1;align=center;verticalAlign=middle;resizable=0;points=[];labelBackgroundColor=none;" vertex="1" connectable="0" parent="1">
          <mxGeometry x="180.0179776386875" y="300.00224273653555" as="geometry" />
        </mxCell>
        <mxCell id="wmEHwvrF9gfvvMeBKOm7-106" value="&lt;font style=&quot;font-size: 10px;&quot;&gt;&amp;lt;&amp;lt;extends&amp;gt;&amp;gt;&lt;/font&gt;" style="edgeLabel;html=1;align=center;verticalAlign=middle;resizable=0;points=[];labelBackgroundColor=none;" vertex="1" connectable="0" parent="1">
          <mxGeometry x="180.0179776386875" y="245.00224273653555" as="geometry" />
        </mxCell>
        <mxCell id="wmEHwvrF9gfvvMeBKOm7-109" value="&lt;font style=&quot;font-size: 10px;&quot;&gt;&amp;lt;&amp;lt;includes&amp;gt;&amp;gt;&lt;/font&gt;" style="edgeLabel;html=1;align=center;verticalAlign=middle;resizable=0;points=[];labelBackgroundColor=none;" vertex="1" connectable="0" parent="1">
          <mxGeometry x="-579.5398842597681" y="215.0025322553011" as="geometry" />
        </mxCell>
        <mxCell id="wmEHwvrF9gfvvMeBKOm7-111" value="&lt;div align=&quot;left&quot;&gt;Note:&lt;/div&gt;&lt;div align=&quot;left&quot;&gt;The internal user uses the same browsing and searching page as the normal users, only with added features to perform inventory management&lt;br&gt;&lt;/div&gt;" style="text;html=1;align=left;verticalAlign=middle;whiteSpace=wrap;rounded=0;labelBackgroundColor=none;fillColor=#f5f5f5;fontColor=#333333;strokeColor=#666666;" vertex="1" parent="1">
          <mxGeometry x="95" y="85" width="270" height="80" as="geometry" />
        </mxCell>
        <mxCell id="wmEHwvrF9gfvvMeBKOm7-112" value="&lt;font style=&quot;font-size: 10px;&quot;&gt;&amp;lt;&amp;lt;extends&amp;gt;&amp;gt;&lt;/font&gt;" style="edgeLabel;html=1;align=center;verticalAlign=middle;resizable=0;points=[];labelBackgroundColor=none;" vertex="1" connectable="0" parent="1">
          <mxGeometry x="-324.9998842597681" y="260.0025322553011" as="geometry" />
        </mxCell>
        <mxCell id="wmEHwvrF9gfvvMeBKOm7-113" value="&lt;font style=&quot;font-size: 10px;&quot;&gt;&amp;lt;&amp;lt;extends&amp;gt;&amp;gt;&lt;/font&gt;" style="edgeLabel;html=1;align=center;verticalAlign=middle;resizable=0;points=[];labelBackgroundColor=none;" vertex="1" connectable="0" parent="1">
          <mxGeometry x="-324.9998842597681" y="315.0025322553011" as="geometry" />
        </mxCell>
        <mxCell id="wmEHwvrF9gfvvMeBKOm7-114" value="&lt;font style=&quot;font-size: 10px;&quot;&gt;&amp;lt;&amp;lt;includes&amp;gt;&amp;gt;&lt;/font&gt;" style="edgeLabel;html=1;align=center;verticalAlign=middle;resizable=0;points=[];labelBackgroundColor=none;" vertex="1" connectable="0" parent="1">
          <mxGeometry x="-579.5398842597681" y="260.0025322553011" as="geometry" />
        </mxCell>
        <mxCell id="wmEHwvrF9gfvvMeBKOm7-115" value="&lt;font style=&quot;font-size: 10px;&quot;&gt;&amp;lt;&amp;lt;extends&amp;gt;&amp;gt;&lt;/font&gt;" style="edgeLabel;html=1;align=center;verticalAlign=middle;resizable=0;points=[];labelBackgroundColor=none;" vertex="1" connectable="0" parent="1">
          <mxGeometry x="-517.4998842597681" y="315.0025322553011" as="geometry" />
        </mxCell>
        <mxCell id="wmEHwvrF9gfvvMeBKOm7-116" value="&lt;font style=&quot;font-size: 10px;&quot;&gt;&amp;lt;&amp;lt;extends&amp;gt;&amp;gt;&lt;/font&gt;" style="edgeLabel;html=1;align=center;verticalAlign=middle;resizable=0;points=[];labelBackgroundColor=none;" vertex="1" connectable="0" parent="1">
          <mxGeometry x="-454.9998842597681" y="260.0025322553011" as="geometry" />
        </mxCell>
        <mxCell id="wmEHwvrF9gfvvMeBKOm7-117" value="&lt;font style=&quot;font-size: 10px;&quot;&gt;&amp;lt;&amp;lt;extends&amp;gt;&amp;gt;&lt;/font&gt;" style="edgeLabel;html=1;align=center;verticalAlign=middle;resizable=0;points=[];labelBackgroundColor=none;" vertex="1" connectable="0" parent="1">
          <mxGeometry x="-194.99988425976812" y="260.0025322553011" as="geometry" />
        </mxCell>
      </root>
    </mxGraphModel>
  </diagram>
</mxfile>
